<?xml version="1.0" encoding="UTF-8" standalone="no"?>
<svg width="120px" height="120px" viewBox="0 0 120 120" version="1.1" xmlns="http://www.w3.org/2000/svg" xmlns:xlink="http://www.w3.org/1999/xlink" xmlns:sketch="http://www.bohemiancoding.com/sketch/ns">
    <title>apple-touch-icon-120x120</title>
    <description>Created with Sketch (http://www.bohemiancoding.com/sketch)</description>
    <defs>
        <rect id="path-1" x="0" y="0" width="120" height="120"></rect>
        <filter x="-50%" y="-50%" width="200%" height="200%" filterUnits="objectBoundingBox" id="filter-3">
            <feOffset dx="0" dy="0" in="SourceAlpha" result="shadowOffsetOuter1"></feOffset>
            <feGaussianBlur stdDeviation="8.5" in="shadowOffsetOuter1" result="shadowBlurOuter1"></feGaussianBlur>
            <feColorMatrix values="0 0 0 0 1   0 0 0 0 0.998009334   0 0 0 0 0.955855389  0 0 0 0.7 0" in="shadowBlurOuter1" type="matrix" result="shadowMatrixOuter1"></feColorMatrix>
            <feMerge>
                <feMergeNode in="shadowMatrixOuter1"></feMergeNode>
                <feMergeNode in="SourceGraphic"></feMergeNode>
            </feMerge>
        </filter>
        <filter x="-50%" y="-50%" width="200%" height="200%" filterUnits="objectBoundingBox" id="filter-4">
            <feOffset dx="0" dy="0" in="SourceAlpha" result="shadowOffsetOuter1"></feOffset>
            <feGaussianBlur stdDeviation="8.5" in="shadowOffsetOuter1" result="shadowBlurOuter1"></feGaussianBlur>
            <feColorMatrix values="0 0 0 0 1   0 0 0 0 0.998009334   0 0 0 0 0.955855389  0 0 0 0.7 0" in="shadowBlurOuter1" type="matrix" result="shadowMatrixOuter1"></feColorMatrix>
            <feMerge>
                <feMergeNode in="shadowMatrixOuter1"></feMergeNode>
                <feMergeNode in="SourceGraphic"></feMergeNode>
            </feMerge>
        </filter>
    </defs>
    <g id="Page-1" stroke="none" stroke-width="1" fill="none" fill-rule="evenodd" sketch:type="MSPage">
        <path d="M41.837,0 L78.163,0 C90.21,0 96.232,0 102.717,2.05 C109.797,4.627 115.373,10.203 117.95,17.283 C120,23.767 120,29.791 120,41.837 L120,78.163 C120,90.21 120,96.232 117.95,102.717 C115.373,109.797 109.797,115.373 102.717,117.949 C96.232,120 90.21,120 78.163,120 L41.837,120 C29.79,120 23.767,120 17.283,117.949 C10.203,115.373 4.627,109.797 2.05,102.717 C0,96.232 0,90.21 0,78.163 L0,41.837 C0,29.791 0,23.767 2.05,17.283 C4.627,10.203 10.203,4.627 17.283,2.05 C23.767,0 29.79,0 41.837,0 L41.837,0" id="Mask" sketch:type="MSShapeGroup"></path>
        <g id="Group" sketch:type="MSLayerGroup">
            <mask id="mask-2" sketch:name="Rectangle 2 copy" fill="white">
                <use xlink:href="#path-1"></use>
            </mask>
            <use id="Rectangle-2-copy" fill="#132033" sketch:type="MSShapeGroup" xlink:href="#path-1"></use>
            <path d="M136,-48 L115.733333,47.8636364 C114.37296,56.4912753 106.369723,63 98,63 L22,63 C13.4635887,63 5.47154764,56.4903032 4.26666667,47.8636364 L-16,-48 L-2.06666667,-48 L122.066667,-48 L136,-48 Z M121,-40 L107.529167,41.1818182 C106.369045,48.488107 99.5439168,54 92.40625,54 L27.59375,54 C20.3139321,54 13.4983511,48.4872838 12.4708333,41.1818182 L-1,-40 L7.06979167,-40 L112.930208,-40 L121,-40 Z" id="Rectangle-1-copy" opacity="0.08" fill="#6BAAFF" sketch:type="MSShapeGroup" mask="url(#mask-2)"></path>
            <path d="M0,151 L120,151 L120,100 C114.322265,104.507613 106.397051,108.006156 99,108 L22,108 C13.5701795,108.006156 5.19291197,104.362004 0,99 L0,151 Z" id="Rectangle-1-copy" opacity="0.08" fill="#6BAAFF" sketch:type="MSShapeGroup" mask="url(#mask-2)"></path>
            <g id="Oval-1-+-Oval-1-copy-2" mask="url(#mask-2)" transform="translate(19.500000, 75.500000)" fill="#FBFBF2" sketch:type="MSShapeGroup">
                <path d="M12.4058272,24.9058272 C19.3093869,24.9058272 24.9058272,19.3093869 24.9058272,12.4058272 C24.9058272,5.50226745 19.3093869,-0.0941728395 12.4058272,-0.0941728395 C5.50226745,-0.0941728395 -0.0941728395,5.50226745 -0.0941728395,12.4058272 C-0.0941728395,19.3093869 5.50226745,24.9058272 12.4058272,24.9058272 Z" id="Oval-1" filter="url(#filter-3)"></path>
                <path d="M68.4396049,24.8116543 C75.2911544,24.8116543 80.8454321,19.2573766 80.8454321,12.4058272 C80.8454321,5.55427767 75.2911544,0 68.4396049,0 C61.5880554,0 56.0337778,5.55427767 56.0337778,12.4058272 C56.0337778,19.2573766 61.5880554,24.8116543 68.4396049,24.8116543 Z" id="Oval-1-copy" filter="url(#filter-4)"></path>
            </g>
        </g>
    </g>
</svg>