<?xml version="1.0" encoding="UTF-8" standalone="no"?>
<svg width="180px" height="180px" viewBox="0 0 180 180" version="1.1" xmlns="http://www.w3.org/2000/svg" xmlns:xlink="http://www.w3.org/1999/xlink" xmlns:sketch="http://www.bohemiancoding.com/sketch/ns">
    <title>apple-touch-icon-180x180</title>
    <description>Created with Sketch (http://www.bohemiancoding.com/sketch)</description>
    <defs>
        <rect id="path-1" x="0" y="0" width="180" height="180"></rect>
        <filter x="-50%" y="-50%" width="200%" height="200%" filterUnits="objectBoundingBox" id="filter-3">
            <feOffset dx="0" dy="0" in="SourceAlpha" result="shadowOffsetOuter1"></feOffset>
            <feGaussianBlur stdDeviation="8.5" in="shadowOffsetOuter1" result="shadowBlurOuter1"></feGaussianBlur>
            <feColorMatrix values="0 0 0 0 1   0 0 0 0 0.998009334   0 0 0 0 0.955855389  0 0 0 0.7 0" in="shadowBlurOuter1" type="matrix" result="shadowMatrixOuter1"></feColorMatrix>
            <feMerge>
                <feMergeNode in="shadowMatrixOuter1"></feMergeNode>
                <feMergeNode in="SourceGraphic"></feMergeNode>
            </feMerge>
        </filter>
        <filter x="-50%" y="-50%" width="200%" height="200%" filterUnits="objectBoundingBox" id="filter-4">
            <feOffset dx="0" dy="0" in="SourceAlpha" result="shadowOffsetOuter1"></feOffset>
            <feGaussianBlur stdDeviation="8.5" in="shadowOffsetOuter1" result="shadowBlurOuter1"></feGaussianBlur>
            <feColorMatrix values="0 0 0 0 1   0 0 0 0 0.998009334   0 0 0 0 0.955855389  0 0 0 0.7 0" in="shadowBlurOuter1" type="matrix" result="shadowMatrixOuter1"></feColorMatrix>
            <feMerge>
                <feMergeNode in="shadowMatrixOuter1"></feMergeNode>
                <feMergeNode in="SourceGraphic"></feMergeNode>
            </feMerge>
        </filter>
    </defs>
    <g id="Page-1" stroke="none" stroke-width="1" fill="none" fill-rule="evenodd" sketch:type="MSPage">
        <g id="Group-copy" sketch:type="MSLayerGroup">
            <mask id="mask-2" sketch:name="Rectangle 2 copy" fill="white">
                <use xlink:href="#path-1"></use>
            </mask>
            <use id="Rectangle-2-copy" fill="#132033" sketch:type="MSShapeGroup" xlink:href="#path-1"></use>
            <path d="M204,-72 L173.6,71.7954545 C171.55944,84.7369129 159.554585,94.5 147,94.5 L33,94.5 C20.195383,94.5 8.20732146,84.7354548 6.4,71.7954545 L-24,-72 L-3.1,-72 L183.1,-72 L204,-72 Z M181.5,-60 L161.29375,61.7727273 C159.553568,72.7321605 149.315875,81 138.609375,81 L41.390625,81 C30.4708982,81 20.2475266,72.7309257 18.70625,61.7727273 L-1.5,-60 L10.6046875,-60 L169.395312,-60 L181.5,-60 Z" id="Rectangle-1-copy" opacity="0.08" fill="#6BAAFF" sketch:type="MSShapeGroup" mask="url(#mask-2)"></path>
            <path d="M0,226.5 L180,226.5 L180,150 C171.483398,156.76142 159.595577,162.009234 148.5,162 L33,162 C20.3552693,162.009234 7.78936795,156.543006 0,148.5 L0,226.5 Z" id="Rectangle-1-copy" opacity="0.08" fill="#6BAAFF" sketch:type="MSShapeGroup" mask="url(#mask-2)"></path>
            <g id="Oval-1-+-Oval-1-copy-2" mask="url(#mask-2)" transform="translate(29.250000, 113.250000)" fill="#FBFBF2" sketch:type="MSShapeGroup">
                <path d="M18.6087407,37.3587407 C28.9640803,37.3587407 37.3587407,28.9640803 37.3587407,18.6087407 C37.3587407,8.25340117 28.9640803,-0.141259259 18.6087407,-0.141259259 C8.25340117,-0.141259259 -0.141259259,8.25340117 -0.141259259,18.6087407 C-0.141259259,28.9640803 8.25340117,37.3587407 18.6087407,37.3587407 Z" id="Oval-1" filter="url(#filter-3)"></path>
                <path d="M102.659407,37.2174815 C112.936732,37.2174815 121.268148,28.886065 121.268148,18.6087407 C121.268148,8.33141651 112.936732,0 102.659407,0 C92.3820832,0 84.0506667,8.33141651 84.0506667,18.6087407 C84.0506667,28.886065 92.3820832,37.2174815 102.659407,37.2174815 Z" id="Oval-1-copy" filter="url(#filter-4)"></path>
            </g>
        </g>
    </g>
</svg>