<?xml version="1.0" encoding="UTF-8" standalone="no"?>
<svg width="76px" height="76px" viewBox="0 0 76 76" version="1.1" xmlns="http://www.w3.org/2000/svg" xmlns:xlink="http://www.w3.org/1999/xlink" xmlns:sketch="http://www.bohemiancoding.com/sketch/ns">
    <title>apple-touch-icon-76x76</title>
    <description>Created with Sketch (http://www.bohemiancoding.com/sketch)</description>
    <defs>
        <rect id="path-1" x="0" y="0" width="76" height="76"></rect>
        <filter x="-50%" y="-50%" width="200%" height="200%" filterUnits="objectBoundingBox" id="filter-3">
            <feOffset dx="0" dy="0" in="SourceAlpha" result="shadowOffsetOuter1"></feOffset>
            <feGaussianBlur stdDeviation="8.5" in="shadowOffsetOuter1" result="shadowBlurOuter1"></feGaussianBlur>
            <feColorMatrix values="0 0 0 0 1   0 0 0 0 0.998009334   0 0 0 0 0.955855389  0 0 0 0.7 0" in="shadowBlurOuter1" type="matrix" result="shadowMatrixOuter1"></feColorMatrix>
            <feMerge>
                <feMergeNode in="shadowMatrixOuter1"></feMergeNode>
                <feMergeNode in="SourceGraphic"></feMergeNode>
            </feMerge>
        </filter>
        <filter x="-50%" y="-50%" width="200%" height="200%" filterUnits="objectBoundingBox" id="filter-4">
            <feOffset dx="0" dy="0" in="SourceAlpha" result="shadowOffsetOuter1"></feOffset>
            <feGaussianBlur stdDeviation="8.5" in="shadowOffsetOuter1" result="shadowBlurOuter1"></feGaussianBlur>
            <feColorMatrix values="0 0 0 0 1   0 0 0 0 0.998009334   0 0 0 0 0.955855389  0 0 0 0.7 0" in="shadowBlurOuter1" type="matrix" result="shadowMatrixOuter1"></feColorMatrix>
            <feMerge>
                <feMergeNode in="shadowMatrixOuter1"></feMergeNode>
                <feMergeNode in="SourceGraphic"></feMergeNode>
            </feMerge>
        </filter>
    </defs>
    <g id="Page-1" stroke="none" stroke-width="1" fill="none" fill-rule="evenodd" sketch:type="MSPage">
        <g id="Group-copy" sketch:type="MSLayerGroup">
            <mask id="mask-2" sketch:name="Rectangle 2 copy" fill="white">
                <use xlink:href="#path-1"></use>
            </mask>
            <use id="Rectangle-2-copy" fill="#132033" sketch:type="MSShapeGroup" xlink:href="#path-1"></use>
            <path d="M86.1333333,-30.4 L73.2977778,30.3136364 C72.4362078,35.7778077 67.3674913,39.9 62.0666667,39.9 L13.9333333,39.9 C8.52693949,39.9 3.46531351,35.777192 2.70222222,30.3136364 L-10.1333333,-30.4 L-1.30888889,-30.4 L77.3088889,-30.4 L86.1333333,-30.4 Z M76.6333333,-25.3333333 L68.1018056,26.0818182 C67.3670621,30.7091344 63.0444807,34.2 58.5239583,34.2 L17.4760417,34.2 C12.8654903,34.2 8.54895568,30.7086131 7.89819444,26.0818182 L-0.633333333,-25.3333333 L4.47753472,-25.3333333 L71.5224653,-25.3333333 L76.6333333,-25.3333333 Z" id="Rectangle-1-copy" opacity="0.08" fill="#6BAAFF" sketch:type="MSShapeGroup" mask="url(#mask-2)"></path>
            <path d="M0,95.6333333 L76,95.6333333 L76,63.3333333 C72.4041013,66.188155 67.3847992,68.4038988 62.7,68.4 L13.9333333,68.4 C8.59444705,68.4038988 3.28884425,66.0959358 0,62.7 L0,95.6333333 Z" id="Rectangle-1-copy" opacity="0.08" fill="#6BAAFF" sketch:type="MSShapeGroup" mask="url(#mask-2)"></path>
            <g id="Oval-1-+-Oval-1-copy-2" mask="url(#mask-2)" transform="translate(12.350000, 47.816667)" fill="#FBFBF2" sketch:type="MSShapeGroup">
                <path d="M7.85702387,15.7736905 C12.2292784,15.7736905 15.7736905,12.2292784 15.7736905,7.85702387 C15.7736905,3.48476938 12.2292784,-0.0596427984 7.85702387,-0.0596427984 C3.48476938,-0.0596427984 -0.0596427984,3.48476938 -0.0596427984,7.85702387 C-0.0596427984,12.2292784 3.48476938,15.7736905 7.85702387,15.7736905 Z" id="Oval-1" filter="url(#filter-3)"></path>
                <path d="M43.3450831,15.7140477 C47.6843978,15.7140477 51.202107,12.1963385 51.202107,7.85702387 C51.202107,3.51770919 47.6843978,0 43.3450831,0 C39.0057685,0 35.4880593,3.51770919 35.4880593,7.85702387 C35.4880593,12.1963385 39.0057685,15.7140477 43.3450831,15.7140477 Z" id="Oval-1-copy" filter="url(#filter-4)"></path>
            </g>
        </g>
    </g>
</svg>