<?xml version="1.0" encoding="UTF-8" standalone="no"?>
<svg width="152px" height="152px" viewBox="0 0 152 152" version="1.1" xmlns="http://www.w3.org/2000/svg" xmlns:xlink="http://www.w3.org/1999/xlink" xmlns:sketch="http://www.bohemiancoding.com/sketch/ns">
    <title>icon apple-touch-icon-152x152</title>
    <description>Created with Sketch (http://www.bohemiancoding.com/sketch)</description>
    <defs>
        <rect id="path-1" x="0" y="0" width="152" height="152"></rect>
        <filter x="-50%" y="-50%" width="200%" height="200%" filterUnits="objectBoundingBox" id="filter-3">
            <feOffset dx="0" dy="0" in="SourceAlpha" result="shadowOffsetOuter1"></feOffset>
            <feGaussianBlur stdDeviation="8.5" in="shadowOffsetOuter1" result="shadowBlurOuter1"></feGaussianBlur>
            <feColorMatrix values="0 0 0 0 1   0 0 0 0 0.998009334   0 0 0 0 0.955855389  0 0 0 0.7 0" in="shadowBlurOuter1" type="matrix" result="shadowMatrixOuter1"></feColorMatrix>
            <feMerge>
                <feMergeNode in="shadowMatrixOuter1"></feMergeNode>
                <feMergeNode in="SourceGraphic"></feMergeNode>
            </feMerge>
        </filter>
        <filter x="-50%" y="-50%" width="200%" height="200%" filterUnits="objectBoundingBox" id="filter-4">
            <feOffset dx="0" dy="0" in="SourceAlpha" result="shadowOffsetOuter1"></feOffset>
            <feGaussianBlur stdDeviation="8.5" in="shadowOffsetOuter1" result="shadowBlurOuter1"></feGaussianBlur>
            <feColorMatrix values="0 0 0 0 1   0 0 0 0 0.998009334   0 0 0 0 0.955855389  0 0 0 0.7 0" in="shadowBlurOuter1" type="matrix" result="shadowMatrixOuter1"></feColorMatrix>
            <feMerge>
                <feMergeNode in="shadowMatrixOuter1"></feMergeNode>
                <feMergeNode in="SourceGraphic"></feMergeNode>
            </feMerge>
        </filter>
    </defs>
    <g id="Page-1" stroke="none" stroke-width="1" fill="none" fill-rule="evenodd" sketch:type="MSPage">
        <g id="Group-copy" sketch:type="MSLayerGroup">
            <mask id="mask-2" sketch:name="Rectangle 2 copy" fill="white">
                <use xlink:href="#path-1"></use>
            </mask>
            <use id="Rectangle-2-copy" fill="#132033" sketch:type="MSShapeGroup" xlink:href="#path-1"></use>
            <path d="M172.266667,-60.8 L146.595556,60.6272727 C144.872416,71.5556153 134.734983,79.8 124.133333,79.8 L27.8666667,79.8 C17.053879,79.8 6.93062701,71.5543841 5.40444444,60.6272727 L-20.2666667,-60.8 L-2.61777778,-60.8 L154.617778,-60.8 L172.266667,-60.8 Z M153.266667,-50.6666667 L136.203611,52.1636364 C134.734124,61.4182688 126.088961,68.4 117.047917,68.4 L34.9520833,68.4 C25.7309807,68.4 17.0979114,61.4172262 15.7963889,52.1636364 L-1.26666667,-50.6666667 L8.95506944,-50.6666667 L143.044931,-50.6666667 L153.266667,-50.6666667 Z" id="Rectangle-1-copy" opacity="0.08" fill="#6BAAFF" sketch:type="MSShapeGroup" mask="url(#mask-2)"></path>
            <path d="M0,191.266667 L152,191.266667 L152,126.666667 C144.808203,132.37631 134.769598,136.807798 125.4,136.8 L27.8666667,136.8 C17.1888941,136.807798 6.57768849,132.191872 0,125.4 L0,191.266667 Z" id="Rectangle-1-copy" opacity="0.08" fill="#6BAAFF" sketch:type="MSShapeGroup" mask="url(#mask-2)"></path>
            <g id="Oval-1-+-Oval-1-copy-2" mask="url(#mask-2)" transform="translate(24.700000, 95.633333)" fill="#FBFBF2" sketch:type="MSShapeGroup">
                <path d="M15.7140477,31.5473811 C24.4585567,31.5473811 31.5473811,24.4585567 31.5473811,15.7140477 C31.5473811,6.96953876 24.4585567,-0.119285597 15.7140477,-0.119285597 C6.96953876,-0.119285597 -0.119285597,6.96953876 -0.119285597,15.7140477 C-0.119285597,24.4585567 6.96953876,31.5473811 15.7140477,31.5473811 Z" id="Oval-1" filter="url(#filter-3)"></path>
                <path d="M86.6901663,31.4280955 C95.3687956,31.4280955 102.404214,24.3926771 102.404214,15.7140477 C102.404214,7.03541838 95.3687956,0 86.6901663,0 C78.0115369,0 70.9761185,7.03541838 70.9761185,15.7140477 C70.9761185,24.3926771 78.0115369,31.4280955 86.6901663,31.4280955 Z" id="Oval-1-copy" filter="url(#filter-4)"></path>
            </g>
        </g>
    </g>
</svg>